<?xml version="1.0" encoding="UTF-8" standalone="no"?>
<svg
   viewBox="0 0 20 20"
   width="100"
   height="100"
   fill="currentColor"
   version="1.1"
   id="svg1"
   sodipodi:docname="bank-line fdf.svg"
   inkscape:export-filename="bank-line.png"
   inkscape:export-xdpi="96"
   inkscape:export-ydpi="96"
   inkscape:version="1.3.2 (091e20e, 2023-11-25, custom)"
   xmlns:inkscape="http://www.inkscape.org/namespaces/inkscape"
   xmlns:sodipodi="http://sodipodi.sourceforge.net/DTD/sodipodi-0.dtd"
   xmlns="http://www.w3.org/2000/svg"
   xmlns:svg="http://www.w3.org/2000/svg">
  <defs
     id="defs1" />
  <sodipodi:namedview
     id="namedview1"
     pagecolor="#ffffff"
     bordercolor="#000000"
     borderopacity="0.25"
     inkscape:showpageshadow="2"
     inkscape:pageopacity="0.0"
     inkscape:pagecheckerboard="0"
     inkscape:deskcolor="#d1d1d1"
     inkscape:zoom="0.70710678"
     inkscape:cx="206.47518"
     inkscape:cy="-309.00566"
     inkscape:window-width="1920"
     inkscape:window-height="1027"
     inkscape:window-x="-8"
     inkscape:window-y="-8"
     inkscape:window-maximized="1"
     inkscape:current-layer="svg1" />
  <path
     d="m 0,18 h 20 v 2 H 0 Z m 2,-8 h 2 v 7 H 2 Z m 5,0 h 2 v 7 H 7 Z m 4,0 h 2 v 7 h -2 z m 5,0 h 2 v 7 H 16 Z M 0,5 10,0 20,5 V 9 H 0 Z M 2,6.23607 V 7 H 18 V 6.23607 l -8,-4 z M 10,6 C 9.4477,6 9,5.55228 9,5 9,4.44772 9.4477,4 10,4 c 0.5523,0 1,0.44772 1,1 0,0.55228 -0.4477,1 -1,1 z"
     id="path1" />
</svg>
